 <!DOCTYPE svg PUBLIC "-//W3C//DTD SVG 1.1//EN" "http://www.w3.org/Graphics/SVG/1.1/DTD/svg11.dtd">
<svg id="b8e0b5e2-da32-4e65-9830-fb4eee619a2a" data-name="Layer 1" xmlns="http://www.w3.org/2000/svg" width="865.76" height="682.89" viewBox="0 0 865.76 682.89">
<defs>
<style xmlns="http://www.w3.org/1999/xhtml">*, ::after, ::before { box-sizing: border-box; }
img, svg { vertical-align: middle; }
</style>
<style xmlns="http://www.w3.org/1999/xhtml">*, body, html { -webkit-font-smoothing: antialiased; }
img, svg { max-width: 100%; }
</style>
</defs>
<path d="M142.84,349.84l7.85,23.32h25.38a1.37,1.37,0,0,1,.84,2.49l-20.54,14.41,7.85,23.32a1.42,1.42,0,0,1-2.2,1.54l-20.54-14.41-20.54,14.41a1.41,1.41,0,0,1-2.19-1.54l7.84-23.32-20.54-14.41a1.37,1.37,0,0,1,.84-2.49h25.39l7.84-23.32A1.45,1.45,0,0,1,142.84,349.84Z" fill="#fff"/>
<path d="M724.91,493.93l5.9,18.14h19.07a1.07,1.07,0,0,1,.64,1.94l-15.44,11.21,5.9,18.15a1.07,1.07,0,0,1-1.65,1.2l-15.44-11.22-15.43,11.22a1.07,1.07,0,0,1-1.65-1.2l5.89-18.15L697.27,514a1.07,1.07,0,0,1,.63-1.94H717l5.89-18.14A1.07,1.07,0,0,1,724.91,493.93Z" fill="#fff"/>
<path d="M744.42,187.28l8.11,25h26.28a1.48,1.48,0,0,1,.86,2.68l-21.25,15.44,8.12,25a1.48,1.48,0,0,1-2.28,1.66L743,241.57,721.76,257a1.48,1.48,0,0,1-2.28-1.66l8.12-25-21.25-15.44a1.48,1.48,0,0,1,.87-2.68h26.27l8.12-25A1.48,1.48,0,0,1,744.42,187.28Z" fill="#fff"/>
<path d="M805.29,428H704.23a4.29,4.29,0,0,1-4.29-4.28h0a4.29,4.29,0,0,1,4.29-4.29H805.29a4.29,4.29,0,0,1,4.28,4.29h0A4.28,4.28,0,0,1,805.29,428Z" fill="#2f2e41" data-secondary="true"/>
<path d="M137.2,305.76H47a4.28,4.28,0,0,1-4.29-4.28h0A4.28,4.28,0,0,1,47,297.2H137.2a4.27,4.27,0,0,1,4.28,4.28h0A4.27,4.27,0,0,1,137.2,305.76Z" fill="#ccc"/>
<rect x="92.72" y="116.36" width="18.06" height="17.49" rx="3.4" fill="#2f2e41" data-secondary="true"/>
<rect x="104.55" y="498.81" width="16.74" height="16.22" rx="3.15" fill="#e6d6c6"/>
<rect x="833.92" y="185.27" width="16.74" height="16.22" rx="3.15" fill="#2f2e41" data-secondary="true"/>
<path d="M833,528.4a9,9,0,1,1-9-9.1A9,9,0,0,1,833,528.4Z" fill="none" stroke="#fff" stroke-miterlimit="10" stroke-width="1.7"/>
<path d="M33.89,444.19a9,9,0,1,1-9-9.09A9,9,0,0,1,33.89,444.19Z" fill="none" stroke="#fff" stroke-miterlimit="10" stroke-width="1.7"/>
<path d="M730.16,113.5a9,9,0,1,1-9-9.09A9,9,0,0,1,730.16,113.5Z" fill="none" stroke="#fff" stroke-miterlimit="10" stroke-width="1.7"/>
<path d="M58.6,216a5.52,5.52,0,1,1-5.52-5.59A5.56,5.56,0,0,1,58.6,216Z" fill="#fff"/>
<path d="M815.09,338.38a5.52,5.52,0,1,1-5.52-5.6A5.56,5.56,0,0,1,815.09,338.38Z" fill="#fff"/>
<rect x="244.98" y="83.06" width="369.7" height="404.26" fill="#fafafa"/>
<path d="M399.11,379.64l-.12,7.58c-8.52,12.93-26.22,52-28.35,106.36,0,0-1.37,20.58,3.24,72.53L373,603.56h50.46L437,462.87l24.56,140.34,56.61.35s-7.18-25.77-7.94-43c-1-22.36-3.37-125.18-37.16-173.26l-.71-7.61Z" fill="#2f2e41" data-secondary="true"/>
<path d="M422.06,267.12l-35,6.41a10.61,10.61,0,0,0-7.88,11.55l19.93,94.56h73.23l22.12-92.73a10.61,10.61,0,0,0-7.94-11.56l-34.86-8.77Z" fill="#fff"/>
<path d="M412.5,268.87s21.59,22.33,50.5.56" fill="none" stroke="#ebebeb" stroke-miterlimit="10" stroke-width="1.84"/>
<path d="M411.17,268.13s9,87.16,4.49,171.14l-44.47,4.88s1.75-46.27,1.16-60.92c-1.84-46.09-23.48-92.52-23.48-92.52s6.74-17.13,25.82-19.19Z" fill="#0071f2" data-primary="true"/>
<path d="M351.34,286.18s-26.12,41.46-45.85,90.11c-5.22,12.89.55,26.11,13.79,30.35,14.51,4.65,35.7,11.26,63.61,14L387,421c61.09,5.27-1.38-.12-1.38-.12l12.68-40.26-38-15.43,10.51-17.45Z" fill="#0071f2" data-primary="true"/>
<path d="M351.34,286.18s-26.12,41.46-45.85,90.11c-5.22,12.89.55,26.11,13.79,30.35,14.51,4.65,35.7,11.26,63.61,14L387,421c61.09,5.27-1.38-.12-1.38-.12l12.68-40.26-38-15.43,10.51-17.45Z" opacity="0.2"/>
<path d="M481,271.54s42.85-2.67,49.85,33.54c4.46,23,23.26,66.82,20.52,96.24-1.73,18.58-25.09,30.47-45.08,22.42-5.23-2.11-9.45-5.35-10.81-10.3C491,396.93,481,271.54,481,271.54Z" fill="#0071f2" data-primary="true"/>
<path d="M481,271.54s42.85-2.67,49.85,33.54c4.46,23,23.26,66.82,20.52,96.24-1.73,18.58-25.09,30.47-45.08,22.42-5.23-2.11-9.45-5.35-10.81-10.3C491,396.93,481,271.54,481,271.54Z" opacity="0.2"/>
<path d="M465.11,268.14s-10.17,130.38-9.71,172.79l48.63,2S500.94,339.82,505.56,287c.53-6.05-3.5-12.75-9.43-14C488.79,271.34,478,270.34,465.11,268.14Z" fill="#0071f2" data-primary="true"/>
<rect x="403.21" y="285.9" width="33.71" height="61.21" rx="5.23" transform="translate(36.49 -43.35) rotate(6.18)" fill="#2f2e41" data-secondary="true"/>
<path d="M462.23,328.59s-3.5-9.47-24-23.58l-.81,7.49s-19,.59-32.22-6.28a3,3,0,0,0-4.4,2.07,25.89,25.89,0,0,0,1.54,15c1.86,4.42,6.94,10,11.08,12.39,7.19,4.17,22.82,11.82,34.85,11.28C465.21,346.16,462.23,328.59,462.23,328.59Z" fill="#f9b499"/>
<polygon points="461.32 318.07 534.05 373.95 504.14 421.79 425.42 349.08 461.32 318.07" fill="#0071f2" data-primary="true"/>
<polygon points="461.32 318.07 534.05 373.95 504.14 421.79 425.42 349.08 461.32 318.07" opacity="0.2"/>
<path d="M449.46,229.58a72.41,72.41,0,0,0-9.64,1.18c-5.62,1.05-10.21-1.91-11.34,1.9,0,.07-4.59-3.81-4.59-3.81l-3.46,38.65s17.16,9.1,33.39-.47Z" fill="#f9b499"/>
<path d="M443.29,152.91s22.19-18.81,6.81-33.3-32.46.22-33.73,8.94c-2.24,15.32,12,23.73,12,23.73Z" fill="#2f2e41" data-secondary="true"/>
<path d="M426.5,148s-9,.24-14.64-12.24c0,0,3.19,16.85,18,14.8Z" fill="#2f2e41" data-secondary="true"/>
<path d="M444.54,146.78s7.27,1.12,15.23-12.08c0,0-3.57,16.13-18.43,14.8Z" fill="#2f2e41" data-secondary="true"/>
<path d="M421.45,224.71S426.31,244.48,451,243l-2.46-22.2Z" fill="#f7a48b"/>
<path d="M475.15,182.34c0,21.42-16.67,38.79-37.23,38.79s-37.24-17.37-37.24-38.79,16.67-36,37.24-36S475.15,160.91,475.15,182.34Z" fill="#2f2e41" data-secondary="true"/>
<path d="M467.13,183.08a132.72,132.72,0,0,1-3.53,30.17c-1.72,7.3-6.57,12.41-13.43,16.52l-1.25.75a24.07,24.07,0,0,1-24,.26h0c-7.43-4.23-12.63-9.8-14.23-17.64a194,194,0,0,1-3.23-30.06s-2.77-30.76,29.4-30.17S467.13,183.08,467.13,183.08Z" fill="#f9b499"/>
<path d="M411,214.36c-5.67,4.9-17.61-14.49-12.12-19.71s9.38,3.28,9.38,3.28l1.11,6.12,1.66,8.24.42,1.85Z" fill="#f9b499"/>
<path d="M463.59,214.48c5.75,4.79,17.35-14.79,11.77-19.92s-9.31,3.44-9.31,3.44l-1,6.14-1.52,8.27-.39,1.85Z" fill="#f9b499"/>
<path d="M453.3,180.47h20s-2-31.81-38.69-29.59c0,0-30.21.35-29.39,29.59h32.54l.69-3.2.77,3.2h11.48l1.14-7.58Z" fill="#2f2e41" data-secondary="true"/>
<line x1="451.81" y1="172.89" x2="450.67" y2="180.47" fill="#2f2e41" data-secondary="true"/>
<polygon points="404.1 192.92 408.79 200.98 407.41 180.47 404.1 192.92" fill="#2f2e41" data-secondary="true"/>
<polygon points="470.8 192.92 465.98 200.98 467.1 180.47 470.8 192.92" fill="#f9b499"/>
<path d="M409.8,236.88A12.29,12.29,0,0,1,407.57,213a.79.79,0,0,0,.56-.75h0a.8.8,0,0,0-1.05-.75,13.87,13.87,0,0,0,2.35,26.94c6.83.92,12.26-2.36,14.39-8.29-.44-.24-1.23-.77-1.23-.77C420.89,234.83,416,237.64,409.8,236.88Z" fill="#0071f2" data-primary="true"/>
<path d="M464,236.88A12.29,12.29,0,0,0,466.19,213a.79.79,0,0,1-.56-.75h0a.8.8,0,0,1,1.05-.75,13.87,13.87,0,0,1-2.34,26.94c-6.84.92-12.27-2.36-14.39-8.29.43-.24,1.22-.77,1.22-.77C452.88,234.83,457.77,237.64,464,236.88Z" fill="#0071f2" data-primary="true"/>
<path d="M232.3,91.3V479.09a12.61,12.61,0,0,0,12.62,12.61H624.15a12.6,12.6,0,0,0,12.61-12.61V91.3a12.6,12.6,0,0,0-12.61-12.61H244.92A12.61,12.61,0,0,0,232.3,91.3ZM611,464.19H258.09v-361H611Z" fill="#ccc"/>
<path d="M578.89,490.31a9.33,9.33,0,0,0-13.2.13l-2.38,2.43-2.45-2.41a9.33,9.33,0,1,0-13.09,13.3l9.08,8.94,0,.07a9.34,9.34,0,0,0,13.2-.14l8.93-9.12A9.34,9.34,0,0,0,578.89,490.31Z" fill="#ccc"/>
<rect x="157.63" y="168.86" width="130.04" height="78.88" rx="9.4" fill="#2f2e41" data-secondary="true"/>
<path d="M201.3,239.23l16,22.9a5.69,5.69,0,0,0,9.35,0l15.71-22.87Z" fill="#2f2e41" data-secondary="true"/>
<path d="M216.14,196.06a10.17,10.17,0,0,0-14.39.15l-2.59,2.65-2.67-2.63a10.17,10.17,0,1,0-14.27,14.5l9.89,9.75s0,.05.06.07a10.19,10.19,0,0,0,14.39-.15l9.73-10A10.16,10.16,0,0,0,216.14,196.06Z" fill="#fff"/>
<path d="M234.21,199c-1.13,0-1.84.63-1.84,2.32v2.52H229v-2.29c0-3.77,1.81-5.92,5.29-5.92s5.29,2.15,5.29,5.92c0,7.41-7.06,10.17-7.06,14a2.85,2.85,0,0,0,0,.5h6.7v3.37H229v-2.9c0-6.93,7-8.08,7-14.87C236.05,199.55,235.34,199,234.21,199Z" fill="#fff"/>
<path d="M245,211.83V214c0,1.68.71,2.29,1.84,2.29s1.84-.61,1.84-2.29v-5.18c0-1.69-.71-2.33-1.84-2.33s-1.84.64-1.84,2.33v.7h-3.35l.64-13.66h9.35v3.37h-6.15l-.29,5.61a3.33,3.33,0,0,1,3.09-1.71c2.61,0,3.94,1.92,3.94,5.38v5.25c0,3.77-1.81,5.93-5.29,5.93s-5.29-2.16-5.29-5.93v-1.95Z" fill="#fff"/>
<circle cx="626.76" cy="139.95" r="42.25" fill="#2f2e41" data-secondary="true"/>
<path d="M641.12,129.09a8.75,8.75,0,0,0-12.39.13l-2.23,2.28-2.3-2.27a8.76,8.76,0,1,0-12.29,12.49l8.52,8.4s0,0,.05,0a8.76,8.76,0,0,0,12.39-.13l8.39-8.56A8.76,8.76,0,0,0,641.12,129.09Z" fill="#fff"/>
<circle cx="232.38" cy="515.83" r="41.76" transform="translate(-295.55 719.22) rotate(-86.82)" fill="#2f2e41" data-secondary="true"/>
<path d="M239.41,530.57c-7.23.12-14.55.22-21.19-.24-2.11-.14-3.93-3.49-1.37-4.54a4.78,4.78,0,0,1-2.64-2.29,2.27,2.27,0,0,1,1.28-3c-2.51.62-3.49-3.36-1.54-4.64a5.83,5.83,0,0,1-2.11-3.39,3.4,3.4,0,0,1,1.52-3.51,5.49,5.49,0,0,1,2.61-.45l9-.07c-.82-4.7-1.06-9.83,1.33-14,.72-1.25,2.66-2.74,4.19-1.78s1,3.13,1,4.54a15.88,15.88,0,0,0,8.2,14.49S239.34,524.21,239.41,530.57Z" fill="#fafafa"/>
<rect x="242.03" y="511.74" width="10.93" height="18.81" transform="translate(495 1042.3) rotate(180)" fill="#fafafa"/>
<rect x="584.77" y="293.06" width="127.34" height="79.7" rx="9.5" fill="#2f2e41" data-secondary="true"/>
<path d="M627.52,364.16l16.17,23.14a5.75,5.75,0,0,0,9.45,0L669,364.16Z" fill="#2f2e41" data-secondary="true"/>
<path d="M642.52,320.54a10.27,10.27,0,0,0-14.54.15l-2.62,2.68-2.69-2.66a10.28,10.28,0,1,0-14.43,14.65l10,9.85s0,.05.06.07a10.26,10.26,0,0,0,14.53-.15l9.84-10.05A10.27,10.27,0,0,0,642.52,320.54Z" fill="#fff"/>
<path d="M667.42,338.12c0,4-1.82,6.12-5.65,6.12-3.64,0-5.52-2.15-5.52-5.92v-.6h3.5v.84c0,1.68.73,2.32,1.91,2.32s2.06-.64,2.06-2.89v-4.31a3.54,3.54,0,0,1-3.44,2.08c-2.72,0-4.1-1.91-4.1-5.38v-4.31c0-3.77,2-5.92,5.62-5.92s5.62,2.15,5.62,5.92Zm-3.7-8v-4.24c0-1.68-.74-2.29-1.92-2.29s-1.92.61-1.92,2.29v4.24c0,1.68.74,2.32,1.92,2.32S663.72,331.76,663.72,330.08Z" fill="#fff"/>
<path d="M680.74,338.12c0,4-1.82,6.12-5.65,6.12-3.64,0-5.52-2.15-5.52-5.92v-.6h3.5v.84c0,1.68.74,2.32,1.92,2.32s2-.64,2-2.89v-4.31a3.52,3.52,0,0,1-3.43,2.08c-2.73,0-4.11-1.91-4.11-5.38v-4.31c0-3.77,2-5.92,5.62-5.92s5.62,2.15,5.62,5.92Zm-3.7-8v-4.24c0-1.68-.74-2.29-1.92-2.29s-1.92.61-1.92,2.29v4.24c0,1.68.74,2.32,1.92,2.32S677,331.76,677,330.08Z" fill="#fff"/>
<rect x="106" y="602.91" width="662.63" height="1.3" fill="#ccc"/>
</svg>